Simulation
nRows=44
nColumns=15
endheader
time  TH_x TH_y TH_z SC_y  SC_z  SC_x  AC_y  AC_z  AC_x  GH_y  GH_z  GH_yy  EL_x  PS_y
0.0  0.000000  0.000000  0.000000  -21.481837363305974  5.049547332879065  0.3347068766571287  50.60118170322874  6.837654169335547  -0.5566811247774228  137.52937510549953  1.8908798028866338  -93.64909145197433  20.919713866962706  120.000000
0.05362  0.000000  0.000000  0.000000  -20.525856693280247  4.692263103713505  -0.562116432634358  50.331768637121314  6.677496924327388  -0.49611546272574125  14.360628844839598  1.8893095109523868  27.99667212298353  20.22750565469933  120.000000
0.10724  0.000000  0.000000  0.000000  -19.72282855798847  4.308407071446923  -1.4647024656391652  50.06480939103886  6.413927339778893  -0.41884192068085807  -3.406085548906991  4.954527783204133  44.1185944507296  19.53999890257796  120.000000
0.16086  0.000000  0.000000  0.000000  -19.171550503215727  3.9463311450837364  -2.3762165941862885  49.805851729128534  6.11730053367704  -0.31059594785163647  -6.928333169210167  8.001798740194598  45.74300690869889  18.827184352468112  120.000000
0.21448  0.000000  0.000000  0.000000  -18.92557635331124  3.6496114266432444  -3.2738920336813253  49.56280052091452  5.886699301886007  -0.15005175688369204  -8.163300677443548  10.940441122877525  44.748641010419824  18.075277289491893  120.000000
0.2681  0.000000  0.000000  0.000000  -18.99517726995304  3.456913300061841  -4.117270400217684  49.347910965912845  5.822626931312404  0.07966526181547677  -8.799456827837469  13.78836997729326  42.81351934447373  17.282245370839586  120.000000
0.32172  0.000000  0.000000  0.000000  -19.37071749322543  3.40522521492768  -4.864198421493204  49.17183112157517  5.995881176794545  0.3875042708356155  -9.347997617631213  16.57818864386963  40.4923068407087  16.458639616509803  120.000000
0.37534  0.000000  0.000000  0.000000  -20.035546162826115  3.521900859727334  -5.47971516231976  49.035969059326604  6.4313832901127  0.7736559080347948  -10.007642077799913  19.34192437396256  38.06580253087092  15.62136595015438  120.000000
0.42896  0.000000  0.000000  0.000000  -20.971993965376836  3.8216200111412957  -5.931954042523862  48.93169105783061  7.1039095820600355  1.2289380400049812  -10.837294952136  22.104222988441297  35.69785501421354  14.792836206486358  120.000000
0.48258  0.000000  0.000000  0.000000  -22.154720000011764  4.301560183765763  -6.189195675222326  48.847661755895  7.9486598106833295  1.7358718771966584  -11.822685038159129  24.87853733830838  33.490715893623594  13.99558266581523  120.000000
0.5362  0.000000  0.000000  0.000000  -23.549877786143146  4.943694985900565  -6.2239117968791415  48.77535026459281  8.880213507773016  2.273474572127866  -12.901135313146492  27.664707858635918  31.495795941394654  13.248992119114282  120.000000
0.58982  0.000000  0.000000  0.000000  -25.11318134324903  5.719186988392714  -6.012880605934095  48.71522025058714  9.81004002099651  2.817615270023569  -13.982988741728272  30.45090044118157  29.72268072547701  12.565483128556831  120.000000
0.64344  0.000000  0.000000  0.000000  -26.793988856130845  6.595595516213954  -5.539329520466186  48.67517426584358  10.661605873099521  3.3461651290932655  -14.966444673937396  33.21783742694043  28.140988521373707  11.951132977993147  120.000000
0.69706  0.000000  0.000000  0.000000  -28.540201341842213  7.5410777158641995  -4.795753101328408  48.667887522096244  11.379475908094301  3.8405871422355906  -15.75768173460607  35.94155743209848  26.690783661938323  11.402852197049025  120.000000
0.75068  0.000000  0.000000  0.000000  -30.3055290993244  8.527113025412687  -3.789117839545406  48.705378035882184  11.932991013585275  4.2886954041463445  -16.283184129347045  38.595325205094724  25.290849033717922  10.906628655349255  120.000000
0.8043  0.000000  0.000000  0.000000  -32.05148966742944  9.526347460839103  -2.549231821742032  48.79372981720343  12.32236482491527  4.692328002698573  -16.499488683719647  41.15449980312093  23.854138330109674  10.436797526267313  120.000000
0.85792  0.000000  0.000000  0.000000  -33.746833621512444  10.515046556191054  -1.1216811023799704  48.93323643072236  12.570040774970298  5.0623170658709995  -16.393808274644982  43.603279460144485  22.303758754459462  9.963807578006296  120.000000
0.91154  0.000000  0.000000  0.000000  -35.365322910432255  11.471220721293028  0.4506332072907855  49.11708548902276  12.702162702743339  5.406272387392766  -15.989624851949184  45.9378900371349  20.59715144530686  9.464928353597129  120.000000
0.96516  0.000000  0.000000  0.000000  -36.8839178358155  12.375793500539258  2.123293583149108  49.330491786178776  12.742301341553217  5.723931014639576  -15.349076739710553  48.16007261085052  18.744073330755455  8.93631772633249  120.000000
1.01878  0.000000  0.000000  0.000000  -38.281237256287206  13.211524046308531  3.847460521655758  49.549987609963814  12.71006358175664  6.009962251699772  -14.565493564900924  50.26987979440909  16.80868198510798  8.396623067384331  120.000000
1.0724  0.000000  0.000000  0.000000  -39.537181946176936  13.965221259090466  5.567943114527957  49.749413891554376  12.621368502152357  6.253776684085327  -13.746342157216334  52.25603050435067  14.89266722446701  7.879617599920921  120.000000
1.12602  0.000000  0.000000  0.000000  -40.63418316273716  14.626056246748227  7.222750537902677  49.90666455802034  12.489829951632936  6.447239346521246  -12.989731968182122  54.09427252789723  13.108537491307233  7.423134710582724  120.000000
1.17964  0.000000  0.000000  0.000000  -41.56277802691662  15.189403636448505  8.75566821683429  50.011315326618956  12.324332792624777  6.585976668515993  -12.364156533825089  55.75389435084487  11.55260828391868  7.05965144957218  120.000000
1.23326  0.000000  0.000000  0.000000  -42.32732543530002  15.658913525764246  10.124875009308935  50.069320047243444  12.125088696479661  6.6638641434795485  -11.902426322645281  57.20806524312592  10.292034547431525  6.811443369701149  120.000000
1.28688  0.000000  0.000000  0.000000  -42.94398654975584  16.04205386582465  11.3029369748051  50.09653033356303  11.886555551318219  6.677624938323712  -11.607391449548274  58.43759281326828  9.361532942147852  6.690383028201751  120.000000
1.3405  0.000000  0.000000  0.000000  -43.43239939144642  16.34916962213876  12.275110638983445  50.11072539303156  11.60450280292825  6.628467394980918  -11.461969246933107  59.43384492406857  8.763688590589437  6.69576566468997  120.000000
1.39412  0.000000  0.000000  0.000000  -43.81134405007016  16.59076426412537  13.043472348976438  50.122653482134105  11.284022084275605  6.5239977302455445  -11.439601256748963  60.201492175831106  8.46983491834394  6.808100447394721  120.000000
1.44774  0.000000  0.000000  0.000000  -44.09687703435172  16.77545195824452  13.628567137484895  50.13451580036101  10.944277316760576  6.37730333449959  -11.511329261365983  60.759417618746596  8.424051235264907  6.984200897339114  120.000000
1.50136  0.000000  0.000000  0.000000  -44.30211916240071  16.90849936301752  14.065787600145555  50.14217962851987  10.61491913651166  6.204329899034338  -11.648445982214474  61.138083258094156  8.553376197444601  7.164485030681197  120.000000
1.55498  0.000000  0.000000  0.000000  -44.43623056758879  16.992236964219913  14.395339239986056  50.13949126569016  10.326792036510305  6.019568328901272  -11.82305932799686  61.371015221295345  8.783364051761424  7.2893734120256415  120.000000
1.6086  0.000000  0.000000  0.000000  -44.503214222907374  17.027597028573577  14.64976494115791  50.122701806171484  10.100927835332485  5.831382141148631  -12.007068884837654  61.48446595632884  9.052506024863035  7.32029746712973  120.000000
1.66222  0.000000  0.000000  0.000000  -44.49936084732644  17.01453733345834  14.846196715132818  50.092341757200394  9.9415405523333  5.640900423607297  -12.17204058207282  61.48633967788357  9.320539816136648  7.253112306428879  120.000000
1.71584  0.000000  0.000000  0.000000  -44.41125667366796  16.95147455864262  14.984755514980957  50.05418192650049  9.836365692670215  5.44216168938178  -12.291211765625555  61.3572105437857  9.566047596964816  7.116947694081276  120.000000
1.76946  0.000000  0.000000  0.000000  -44.21621884699406  16.83419301855313  15.052792785554844  50.019184638775656  9.761944749428219  5.224338269877891  -12.34320276458073  61.04489520483609  9.776200953930067  6.961544334885614  120.000000
1.82308  0.000000  0.000000  0.000000  -43.88729789651535  16.65498281074828  15.030943176386263  50.00248628409267  9.690051070261072  4.974421548668134  -12.315904276065732  60.463495833892026  9.935542902487843  6.846267593698241  120.000000
1.8767  0.000000  0.000000  0.000000  -43.40213835208639  16.403719257071515  14.897169373881196  50.02126997357131  9.591454751573465  4.678892338939764  -12.20830889245843  59.50005756547439  10.021524073654291  6.833472627699649  120.000000
1.93032  0.000000  0.000000  0.000000  -42.75088025161346  16.069260895832713  14.62827703997303  50.08913831524631  9.438528476640416  4.325737978499301  -12.027509733484083  58.030462988137835  10.010481525902769  6.983059301965302  120.000000
1.98394  0.000000  0.000000  0.000000  -41.93828661768836  15.642346561695021  14.19852308787805  50.20902063123804  9.207019058083265  3.9059478229258833  -11.779790339582163  55.9448989366038  9.895379064711893  7.340928333040041  120.000000
2.03756  0.000000  0.000000  0.000000  -40.9773592352554  15.118452586331815  13.58201276543891  50.36355294129476  8.881089818364595  3.4195129328828626  -11.459052622751006  53.18219512452693  9.708890379605313  7.91739219279182  120.000000
2.09118  0.000000  0.000000  0.000000  -39.87605984418389  14.501589734298145  12.753943568778222  50.51448086026702  8.461882102509193  2.8771492041509212  -11.042451293311654  49.75644511060626  9.54303194301759  8.662477525491171  120.000000
2.1448  0.000000  0.000000  0.000000  -38.62639550484641  13.801110509271396  11.700081724775893  50.611245708632296  7.967349872558763  2.2996926766119277  -10.497943854629023  45.762076196026946  9.550764439103164  9.463912819918534  120.000000
2.19842  0.000000  0.000000  0.000000  -37.20606045065026  13.027488267675137  10.429066678518256  50.607278857071  7.426270531299198  1.7131533044668739  -9.805038421712004  41.35551976941053  9.92680141365003  10.179291077845418  120.000000
2.25204  0.000000  0.000000  0.000000  -35.59317346387387  12.192016010403087  8.973979922221003  50.477423188131795  6.876787130634878  1.148204870029379  -8.977707767106418  36.726696015941734  10.873174779798006  10.695678780876323  120.000000
2.30566  0.000000  0.000000  0.000000  -33.78578298065192  11.30940960259216  7.386917616736469  50.227229215421204  6.36413013595805  0.6408638354939978  -8.07581798986066  32.07114283027675  12.559095728225847  10.99155234722511  120.000000
